<svg width="64" height="64" viewBox="0 0 64 64" fill="none" xmlns="http://www.w3.org/2000/svg">
<path fill-rule="evenodd" clip-rule="evenodd" d="M52.75 23.5002C53.4403 23.5002 54 24.0599 54 24.7502C54 25.4405 53.4404 26.0002 52.75 26.0002H51.9824C51.6928 32.3753 47.7297 37.7911 42.1602 40.1848L46.2441 55.4269C46.4227 56.0937 46.0271 56.7786 45.3604 56.9572C44.6936 57.1358 44.0087 56.7402 43.8301 56.0734L39.7891 40.9934C38.4976 41.3237 37.1444 41.5002 35.75 41.5002H27.75C26.5233 41.5002 25.3286 41.3633 24.1797 41.1057L20.1699 56.0734C19.9913 56.7402 19.3064 57.1358 18.6396 56.9572C17.9729 56.7786 17.5773 56.0937 17.7559 55.4269L21.7891 40.3723C15.984 38.0821 11.8149 32.5457 11.5176 26.0002H10.25C9.55964 26.0002 9 25.4405 9 24.7502C9.00004 24.0599 9.55967 23.5002 10.25 23.5002H52.75ZM14.0205 26.0002C14.4099 33.2454 20.4077 39.0002 27.75 39.0002H35.75C43.0923 39.0002 49.0901 33.2454 49.4795 26.0002H14.0205ZM22.5254 9.23164C23.0879 8.83161 23.8684 8.96314 24.2686 9.52558C24.6684 10.0881 24.537 10.8687 23.9746 11.2687C23.8963 11.3244 23.695 11.5041 23.5215 11.7756C23.3536 12.0385 23.2501 12.3261 23.25 12.6203C23.2496 12.6528 23.1772 12.6779 23.7441 13.0978C24.1758 13.4176 25.2498 14.135 25.25 15.5832C25.2499 16.5168 24.8627 17.3282 24.4775 17.9064C24.0873 18.4922 23.6207 18.9578 23.2754 19.2307C22.7339 19.6584 21.9476 19.5667 21.5195 19.0256C21.0917 18.4841 21.1834 17.6978 21.7246 17.2697C21.8792 17.1476 22.163 16.8717 22.3975 16.5197C22.637 16.16 22.7499 15.8345 22.75 15.5832C22.7505 15.5507 22.8223 15.5263 22.2559 15.1066C21.8244 14.787 20.7501 14.0689 20.75 12.6203C20.7501 10.8734 21.9326 9.65332 22.5254 9.23164ZM30.9424 6.20332C31.5207 5.82636 32.2949 5.98936 32.6719 6.56757C33.0487 7.14584 32.8858 7.92009 32.3076 8.29707C31.9789 8.51141 31.25 9.35764 31.25 10.5002C31.2501 10.8503 31.3642 11.0007 32.0215 11.5168C32.6137 11.9818 33.75 12.8137 33.75 14.5002C33.7499 15.6217 33.3267 16.6502 32.8486 17.4338C32.3725 18.2142 31.7658 18.8773 31.2334 19.2629C30.6744 19.6676 29.8923 19.5425 29.4873 18.9836C29.0824 18.4245 29.2076 17.6425 29.7666 17.2375C29.9841 17.0799 30.3776 16.683 30.7139 16.132C31.0482 15.584 31.2499 15.0081 31.25 14.5002C31.25 14.1499 31.1359 13.9998 30.4785 13.4836C29.8864 13.0187 28.7501 12.1866 28.75 10.5002C28.75 8.38384 30.021 6.80406 30.9424 6.20332ZM39.5254 9.23164C40.0879 8.83161 40.8684 8.96314 41.2686 9.52558C41.6684 10.0881 41.537 10.8687 40.9746 11.2687C40.8963 11.3244 40.695 11.5041 40.5215 11.7756C40.3536 12.0385 40.2501 12.3261 40.25 12.6203C40.2496 12.6528 40.1772 12.6779 40.7441 13.0978C41.1758 13.4176 42.2498 14.135 42.25 15.5832C42.2499 16.5168 41.8627 17.3282 41.4775 17.9064C41.0873 18.4922 40.6207 18.9578 40.2754 19.2307C39.7339 19.6584 38.9476 19.5667 38.5195 19.0256C38.0917 18.4841 38.1834 17.6978 38.7246 17.2697C38.8792 17.1476 39.163 16.8717 39.3975 16.5197C39.637 16.16 39.7499 15.8345 39.75 15.5832C39.7505 15.5507 39.8223 15.5263 39.2559 15.1066C38.8244 14.787 37.7501 14.0689 37.75 12.6203C37.7501 10.8734 38.9326 9.65332 39.5254 9.23164Z" fill="#7D7267"/>
</svg>
