<svg width="64" height="64" viewBox="0 0 64 64" fill="none" xmlns="http://www.w3.org/2000/svg">
<path d="M10 52H12.6163M55 52H52.1221M12.6163 52V29.5414M12.6163 52H20.1105M12.6163 19.879V29.5414M10.2616 21.1847L27.9346 11V23.9682M12.6163 29.5414H22.0349M55 29.5414H52.1221M52.1221 29.5414V52M52.1221 29.5414V19.5262M52.1221 29.5414H42.9651M52.1221 52H30.5M55 21.1847L37.327 11V23.9682M22.0349 29.5414V23.9682H32.5M22.0349 29.5414H32.5M42.9651 29.5414V23.9682H32.5M42.9651 29.5414H32.5M32.5 23.9682V29.5414M20.1105 52V37.0701H25.3052H30.5V52M20.1105 52H25.3052H30.5M39 37.0701V43.121H45.064V37.0701H39Z" stroke="#7D7267" stroke-width="2.5" stroke-linecap="round" stroke-linejoin="round"/>
</svg>
