<svg width="64" height="64" viewBox="0 0 64 64" fill="none" xmlns="http://www.w3.org/2000/svg">
<path d="M2.5 16L5.23326 35.0255M5.23326 35.0255L5.8102 39.5801H9.09388M5.23326 35.0255H23.0442V39.5801H9.09388M9.09388 39.5801L7.29956 47.5M17.2499 39.7493L19.5336 47.5" stroke="#7D7267" stroke-width="2.5" stroke-linecap="round" stroke-linejoin="round"/>
<path d="M61.0442 16L58.3109 35.0255M58.3109 35.0255L57.734 39.5801H54.4503M58.3109 35.0255H40.5V39.5801H54.4503M54.4503 39.5801L56.2446 47.5M46.2943 39.7493L44.0106 47.5" stroke="#7D7267" stroke-width="2.5" stroke-linecap="round" stroke-linejoin="round"/>
<path d="M12.4668 21.1H17.9732M50.5335 21.1H45.6954M45.6954 21.1V26.1146H31.8343M45.6954 21.1H17.9732M17.9732 21.1V26.1146H31.8343M31.8343 26.1146V47.5M31.8343 47.5H27.1582M31.8343 47.5H36.1762" stroke="#7D7267" stroke-width="2.5" stroke-linecap="round" stroke-linejoin="round"/>
</svg>
